<?xml version="1.0" encoding="iso-8859-1"?>
<!-- Generator: Adobe Illustrator 19.0.0, SVG Export Plug-In . SVG Version: 6.00 Build 0)  -->
<svg version="1.1" id="Layer_1" xmlns="http://www.w3.org/2000/svg" xmlns:xlink="http://www.w3.org/1999/xlink" x="0px" y="0px"
	 viewBox="0 0 512 512" style="enable-background:new 0 0 512 512;" xml:space="preserve">
<path style="fill:#ECF0F1;" d="M283.938,126.429c0-63.7-51.639-115.339-115.339-115.339S53.26,62.729,53.26,126.429
	c0,32.026,13.054,64.401,34.131,91.989c15.887,20.794,24.277,38.584,24.277,64.753l0,0h113.86l0,0
	c0-26.169,8.391-43.958,24.278-64.753C270.883,190.83,283.938,158.454,283.938,126.429z"/>
<rect x="146.414" y="205.536" style="fill:#FFBAA8;" width="44.361" height="77.632"/>
<path style="fill:#FFCF70;" d="M197.978,333.077h-58.76c-9.457,0-17.699-6.436-19.992-15.61l-7.188-34.297h113.121l-7.188,34.297
	C215.678,326.642,207.435,333.077,197.978,333.077z"/>
<path style="fill:#0BBBDA;" d="M257.122,353.018l-6.792,28.177c-6.526,27.072-30.748,46.15-58.595,46.15h-47.363
	c-28.026,0-52.354-19.317-58.705-46.614l-6.409-27.543c-2.337-10.046-11.29-17.153-21.603-17.153l0,0
	c-14.281,0-24.84,13.298-21.603,27.207l7.076,30.411c10.636,45.707,51.372,78.053,98.301,78.053h53.227
	c46.63,0,87.191-31.946,98.117-77.277l7.476-31.016c3.364-13.953-7.21-27.377-21.563-27.377l0,0
	C268.437,336.035,259.524,343.055,257.122,353.018z"/>
<g>
	<path style="fill:#231F20;" d="M123.296,82.924c2.499,0,5.012-0.84,7.083-2.563c10.72-8.911,24.294-13.82,38.219-13.82
		c6.124,0,11.09-4.966,11.09-11.09s-4.966-11.09-11.09-11.09c-19.094,0-37.704,6.727-52.399,18.946
		c-4.71,3.915-5.354,10.907-1.438,15.617C116.955,81.562,120.112,82.924,123.296,82.924z"/>
	<path style="fill:#231F20;" d="M228.73,320.158c0.034-0.138,0.067-0.276,0.095-0.415c10.813-58.513,2.738-59.18,29.793-94.591
		c23.479-30.732,36.409-65.793,36.409-98.723C295.028,56.717,238.311,0,168.599,0S42.17,56.717,42.17,126.429
		c0,32.931,12.93,67.992,36.409,98.723c27.054,35.41,18.981,36.078,29.792,94.59c0.029,0.14,0.061,0.278,0.095,0.416
		c3.534,14.137,16.181,24.009,30.752,24.009h58.758C212.55,344.168,225.196,334.295,228.73,320.158z M96.205,211.686
		C75.663,184.8,64.35,154.522,64.35,126.429c0-57.483,46.765-104.249,104.249-104.249s104.249,46.765,104.249,104.249
		c0,28.092-11.312,58.37-31.855,85.256c-13.924,18.224-23.784,35.897-26.057,60.395H201.87v-64.495l32.54-85.146
		c1.303-3.409,0.846-7.241-1.224-10.247s-5.485-4.802-9.135-4.802c-12.89,0-22.635,3.248-31.232,6.114
		c-8.011,2.671-14.929,4.976-24.219,4.976c-9.29,0-16.208-2.306-24.219-4.976c-8.597-2.866-18.342-6.114-31.232-6.114
		c-3.65,0-7.066,1.796-9.135,4.802c-2.069,3.007-2.526,6.838-1.224,10.247l32.54,85.146v64.495h-13.068
		C119.988,247.584,110.129,229.91,96.205,211.686z M183.146,194.449h-29.093l-23.761-62.174c2.322,0.688,4.647,1.463,7.074,2.272
		c8.597,2.866,18.342,6.114,31.232,6.114c12.89,0,22.635-3.248,31.232-6.114c2.427-0.808,4.752-1.585,7.074-2.272L183.146,194.449z
		 M157.509,216.63h22.181v55.451h-22.181V216.63z M207.17,314.945c-1.119,4.156-4.873,7.042-9.191,7.042h-58.758
		c-4.319,0-8.073-2.887-9.192-7.042l-4.334-20.683h85.81L207.17,314.945z"/>
	<path style="fill:#231F20;" d="M137.546,366.348c-6.124,0-11.09,4.966-11.09,11.09s4.966,11.09,11.09,11.09h60.626
		c6.124,0,11.09-4.966,11.09-11.09s-4.966-11.09-11.09-11.09H137.546z"/>
	<path style="fill:#231F20;" d="M476.538,451.743h-34.009c-9.377,0-17.006-7.628-17.006-17.005V317.92
		c0-21.606-17.579-39.185-39.185-39.185c-21.606,0-39.185,17.579-39.185,39.185v154.894c0,9.377-7.629,17.005-17.006,17.005H201.13
		c-5.646,0-10.643-2.776-13.738-7.023h7.262c51.946,0,96.727-35.269,108.899-85.769l7.475-31.016
		c2.404-9.975,0.143-20.32-6.206-28.381c-6.349-8.063-15.876-12.685-26.138-12.685c-15.429,0-28.729,10.475-32.345,25.475v-0.001
		l-6.792,28.177c-5.343,22.172-25.006,37.658-47.813,37.658h-47.363c-22.993,0-42.693-15.642-47.903-38.037l-6.408-27.543
		c-3.526-15.149-16.851-25.729-32.406-25.729c-10.21,0-19.707,4.586-26.055,12.581c-6.349,7.996-8.664,18.285-6.35,28.23
		l7.076,30.411c5.709,24.535,19.719,46.674,39.447,62.338c19.727,15.665,44.466,24.291,69.657,24.291h21.81
		C167.664,499.583,182.973,512,201.13,512h129.016c21.607,0,39.186-17.579,39.186-39.185V317.92c0-9.377,7.628-17.005,17.005-17.005
		c9.377,0,17.005,7.628,17.005,17.005v116.818c0,21.606,17.579,39.185,39.186,39.185h34.009c6.124,0,11.09-4.966,11.09-11.09
		S482.663,451.743,476.538,451.743z M53.929,391.14l-7.076-30.411c-0.772-3.315,0-6.745,2.116-9.41
		c2.116-2.665,5.282-4.194,8.685-4.194c5.185,0,9.627,3.527,10.801,8.576l6.408,27.543c7.561,32.496,36.145,55.191,69.508,55.191
		h47.363c33.093,0,61.622-22.47,69.377-54.642l6.792-28.176c0-0.001,0-0.001,0-0.001c1.206-4.999,5.638-8.491,10.782-8.491
		c3.42,0,6.595,1.542,8.712,4.228c2.115,2.687,2.869,6.134,2.067,9.46l-7.475,31.016c-9.763,40.501-45.676,68.785-87.336,68.785
		h-53.227C99.429,460.615,63.448,432.046,53.929,391.14z"/>
</g>
<g>
</g>
<g>
</g>
<g>
</g>
<g>
</g>
<g>
</g>
<g>
</g>
<g>
</g>
<g>
</g>
<g>
</g>
<g>
</g>
<g>
</g>
<g>
</g>
<g>
</g>
<g>
</g>
<g>
</g>
</svg>
